<?xml version="1.0" encoding="utf-8"?>
<!-- Generator: Adobe Illustrator 16.0.0, SVG Export Plug-In . SVG Version: 6.00 Build 0)  -->
<!DOCTYPE svg PUBLIC "-//W3C//DTD SVG 1.1//EN" "http://www.w3.org/Graphics/SVG/1.1/DTD/svg11.dtd">
<svg version="1.1" id="Capa_1" xmlns="http://www.w3.org/2000/svg" xmlns:xlink="http://www.w3.org/1999/xlink" x="0px" y="0px"
	 width="841.889px" height="595.281px" viewBox="0 0 841.889 595.281" enable-background="new 0 0 841.889 595.281"
	 xml:space="preserve">
<g>
	<g>
		<path fill="#321C16" d="M645.914,71.131H196.098c-40.153,0-72.793,32.64-72.793,72.794v307.432
			c0,40.153,32.64,72.794,72.793,72.794h449.693c40.153,0,72.794-32.641,72.794-72.794V144.048
			C718.708,103.894,686.068,71.131,645.914,71.131z M685.452,451.356c0,21.802-17.737,39.538-39.538,39.538H196.098
			c-21.801,0-39.537-17.736-39.537-39.538V144.048c0-21.802,17.736-39.538,39.537-39.538h449.693
			c21.801,0,39.537,17.736,39.537,39.538v307.309H685.452z"/>
		<path fill="#321C16" d="M498.727,293.822l145.587-130.561c6.773-6.158,7.39-16.628,1.231-23.525
			c-6.158-6.774-16.628-7.39-23.525-1.231L421.252,318.703l-39.168-34.98c-0.123-0.124-0.246-0.247-0.246-0.37
			c-0.862-0.862-1.725-1.601-2.71-2.34L219.746,138.382c-6.897-6.158-17.366-5.543-23.525,1.354
			c-6.158,6.897-5.542,17.367,1.355,23.525L344.887,294.93L198.192,432.265c-6.65,6.281-7.021,16.751-0.738,23.525
			c3.325,3.448,7.76,5.296,12.193,5.296c4.064,0,8.129-1.478,11.332-4.434l148.912-139.306l40.399,36.089
			c3.202,2.833,7.144,4.188,11.085,4.188s8.007-1.478,11.086-4.311l41.508-37.197l148.051,140.66
			c3.202,3.079,7.39,4.557,11.455,4.557c4.434,0,8.744-1.724,12.07-5.173c6.281-6.651,6.035-17.243-0.616-23.525L498.727,293.822z"
			/>
	</g>
</g>
</svg>
