<?xml version="1.0" encoding="utf-8"?>
<!-- Generator: Adobe Illustrator 16.0.0, SVG Export Plug-In . SVG Version: 6.00 Build 0)  -->
<!DOCTYPE svg PUBLIC "-//W3C//DTD SVG 1.1//EN" "http://www.w3.org/Graphics/SVG/1.1/DTD/svg11.dtd">
<svg version="1.1" id="Capa_1" xmlns="http://www.w3.org/2000/svg" xmlns:xlink="http://www.w3.org/1999/xlink" x="0px" y="0px"
	 width="841.889px" height="595.281px" viewBox="0 0 841.889 595.281" enable-background="new 0 0 841.889 595.281"
	 xml:space="preserve">
<g>
	<g>
		<path fill="#321C16" d="M593.763,368.756c-12.187-12.689-26.886-19.475-42.465-19.475c-15.454,0-30.279,6.659-42.969,19.349
			l-39.701,39.576c-3.267-1.759-6.533-3.393-9.675-5.025c-4.522-2.262-8.794-4.397-12.438-6.659
			c-37.189-23.62-70.985-54.401-103.4-94.229c-15.704-19.851-26.258-36.561-33.922-53.521c10.303-9.423,19.851-19.223,29.148-28.646
			c3.518-3.519,7.035-7.162,10.553-10.68c26.385-26.384,26.385-60.558,0-86.941l-34.299-34.299
			c-3.895-3.896-7.915-7.916-11.685-11.936c-7.538-7.79-15.453-15.831-23.62-23.369c-12.187-12.062-26.761-18.469-42.088-18.469
			c-15.328,0-30.153,6.407-42.718,18.469c-0.125,0.126-0.125,0.126-0.251,0.251l-42.717,43.094
			c-16.082,16.082-25.253,35.682-27.264,58.422c-3.015,36.687,7.79,70.86,16.082,93.224
			c20.354,54.903,50.758,105.787,96.113,160.314c55.029,65.708,121.24,117.597,196.874,154.157
			c28.896,13.695,67.468,29.902,110.562,32.666c2.639,0.126,5.402,0.252,7.915,0.252c29.022,0,53.396-10.429,72.493-31.158
			c0.126-0.252,0.377-0.377,0.503-0.629c6.533-7.915,14.071-15.076,21.986-22.74c5.402-5.151,10.931-10.554,16.333-16.207
			c12.438-12.941,18.972-28.018,18.972-43.471c0-15.579-6.659-30.53-19.349-43.094L593.763,368.756z M638.741,501.052
			C638.616,501.052,638.616,501.177,638.741,501.052c-4.899,5.276-9.925,10.051-15.327,15.327
			c-8.167,7.79-16.459,15.956-24.248,25.128c-12.689,13.568-27.641,19.977-47.24,19.977c-1.885,0-3.895,0-5.779-0.126
			c-37.314-2.387-71.99-16.961-97.998-29.399c-71.11-34.425-133.553-83.298-185.441-145.237
			c-42.843-51.637-71.487-99.38-90.459-150.64c-11.685-31.284-15.956-55.658-14.071-78.649c1.256-14.7,6.91-26.887,17.338-37.314
			l42.843-42.843c6.156-5.779,12.689-8.921,19.097-8.921c7.915,0,14.322,4.774,18.343,8.795c0.126,0.126,0.252,0.251,0.377,0.377
			c7.664,7.161,14.951,14.574,22.615,22.489c3.895,4.021,7.915,8.041,11.936,12.187l34.299,34.3
			c13.318,13.317,13.318,25.63,0,38.947c-3.644,3.644-7.161,7.287-10.805,10.805c-10.554,10.806-20.604,20.856-31.535,30.656
			c-0.251,0.251-0.503,0.377-0.628,0.628c-10.805,10.805-8.795,21.358-6.533,28.52c0.126,0.377,0.251,0.754,0.377,1.131
			c8.92,21.61,21.484,41.963,40.581,66.212l0.126,0.125c34.676,42.718,71.236,76.012,111.565,101.516
			c5.151,3.267,10.429,5.905,15.454,8.418c4.522,2.262,8.794,4.397,12.438,6.659c0.503,0.251,1.006,0.628,1.508,0.879
			c4.271,2.136,8.292,3.142,12.438,3.142c10.428,0,16.961-6.533,19.097-8.669l42.969-42.969c4.271-4.271,11.056-9.423,18.971-9.423
			c7.79,0,14.197,4.9,18.092,9.172c0.126,0.125,0.126,0.125,0.252,0.251l69.227,69.227
			C651.557,474.543,651.557,487.734,638.741,501.052z"/>
		<path fill="#321C16" d="M445.008,141.601c32.917,5.528,62.819,21.107,86.69,44.979s39.324,53.773,44.979,86.69
			c1.382,8.292,8.543,14.071,16.709,14.071c1.006,0,1.885-0.126,2.89-0.251c9.298-1.508,15.454-10.303,13.946-19.6
			c-6.784-39.827-25.63-76.137-54.401-104.908c-28.771-28.771-65.08-47.616-104.907-54.401c-9.298-1.507-17.967,4.649-19.6,13.82
			C429.68,131.174,435.711,140.094,445.008,141.601z"/>
		<path fill="#321C16" d="M717.894,262.591c-11.182-65.583-42.089-125.261-89.58-172.752S521.145,11.44,455.562,0.259
			c-9.172-1.633-17.841,4.648-19.474,13.82c-1.508,9.298,4.648,17.967,13.945,19.6c58.547,9.926,111.943,37.691,154.409,80.031
			c42.466,42.466,70.106,95.862,80.031,154.409c1.382,8.292,8.544,14.071,16.71,14.071c1.005,0,1.885-0.125,2.89-0.251
			C713.245,280.557,719.527,271.762,717.894,262.591z"/>
	</g>
</g>
</svg>
