<?xml version="1.0" encoding="utf-8"?>
<!-- Generator: Adobe Illustrator 16.0.0, SVG Export Plug-In . SVG Version: 6.00 Build 0)  -->
<!DOCTYPE svg PUBLIC "-//W3C//DTD SVG 1.1//EN" "http://www.w3.org/Graphics/SVG/1.1/DTD/svg11.dtd">
<svg version="1.1" id="Capa_1" xmlns="http://www.w3.org/2000/svg" xmlns:xlink="http://www.w3.org/1999/xlink" x="0px" y="0px"
	 width="841.889px" height="595.281px" viewBox="0 0 841.889 595.281" enable-background="new 0 0 841.889 595.281"
	 xml:space="preserve">
<g>
	<g>
		<path fill="#FF7F00" d="M701.53,290.755c-9.475,0-17.055,7.58-17.055,17.056v155.137c0,42.195-34.362,76.432-76.432,76.432
			H233.846c-42.195,0-76.432-34.363-76.432-76.432V305.283c0-9.475-7.58-17.055-17.055-17.055s-17.055,7.58-17.055,17.055v157.664
			c0,61.019,49.648,110.541,110.541,110.541h374.197c61.019,0,110.541-49.648,110.541-110.541V307.81
			C718.584,298.462,711.005,290.755,701.53,290.755z"/>
		<path fill="#FF7F00" d="M324.553,159.369l79.337-79.337v346.025c0,9.476,7.58,17.056,17.055,17.056s17.055-7.58,17.055-17.056
			V80.032l79.337,79.337c3.285,3.284,7.707,5.054,12.002,5.054c4.422,0,8.717-1.643,12.002-5.054c6.695-6.695,6.695-17.434,0-24.13
			L432.947,26.845c-3.159-3.158-7.58-5.053-12.002-5.053c-4.548,0-8.844,1.769-12.002,5.053L300.55,135.239
			c-6.696,6.696-6.696,17.435,0,24.13C307.119,165.938,317.984,165.938,324.553,159.369z"/>
	</g>
</g>
</svg>
